<svg xmlns="http://www.w3.org/2000/svg" width="16" height="16" viewBox="0 0 16 16">
    <path fill="#fff" fill-rule="evenodd" d="M8.285 16c1.4-.002 2.418-.02 3.054-.054.679-.035 1.268-.136 1.768-.303.595-.214 1.113-.542 1.554-.982.44-.44.768-.959.982-1.554.167-.5.268-1.09.303-1.768C15.982 10.661 16 9.548 16 8v-.56c-.003-1.258-.015-2.178-.036-2.761-.047-.69-.154-1.286-.321-1.786-.214-.595-.542-1.113-.982-1.554-.44-.44-.959-.768-1.554-.982-.5-.167-1.09-.268-1.768-.303C10.661.018 9.548 0 8 0h-.285c-1.4.002-2.418.02-3.054.054-.679.035-1.268.136-1.768.303C2.298.571 1.78.9 1.339 1.34c-.44.44-.768.959-.982 1.554-.167.5-.268 1.09-.303 1.768C.018 5.339 0 6.452 0 8v.285c.002 1.4.02 2.418.054 3.054.035.679.136 1.268.303 1.768.214.595.542 1.113.982 1.554.44.44.959.756 1.554.946.5.19 1.09.304 1.768.34C5.339 15.981 6.452 16 8 16h.285zm.286-1.429H7.43c-.953 0-1.69-.011-2.215-.035-.88-.048-1.524-.143-1.928-.286-.715-.286-1.226-.798-1.536-1.536-.143-.404-.238-1.047-.286-1.928-.024-.524-.035-1.262-.035-2.215V7.43c0-.953.011-1.69.035-2.215.048-.904.143-1.547.286-1.928.286-.738.798-1.25 1.536-1.536.404-.143 1.047-.238 1.928-.286.524-.024 1.262-.035 2.215-.035H8.85c.818.002 1.463.014 1.935.035.904.048 1.547.143 1.928.286.738.286 1.25.798 1.536 1.536.143.38.238 1.024.286 1.928.024.5.035 1.238.035 2.215V8.85c-.002.818-.014 1.463-.035 1.935-.048.88-.143 1.524-.286 1.928-.286.715-.798 1.226-1.536 1.536-.38.143-1.024.238-1.928.286-.5.024-1.238.035-2.215.035zm3.715-9.892c.262 0 .482-.096.66-.286.179-.19.28-.417.304-.679 0-.262-.095-.488-.286-.678-.19-.19-.416-.286-.678-.286-.262 0-.488.095-.679.286-.19.19-.286.416-.286.678 0 .262.096.488.286.679.19.19.417.286.679.286zM8 12.107c.738 0 1.423-.184 2.054-.553.63-.37 1.13-.87 1.5-1.5.369-.631.553-1.316.553-2.054 0-.738-.184-1.423-.553-2.054-.37-.63-.87-1.13-1.5-1.5-.631-.369-1.316-.553-2.054-.553-.738 0-1.423.184-2.054.553-.63.37-1.13.87-1.5 1.5-.369.631-.553 1.316-.553 2.054 0 .738.184 1.423.553 2.054.37.63.87 1.13 1.5 1.5.631.369 1.316.553 2.054.553zm0-1.428c-.738 0-1.369-.262-1.893-.786S5.321 8.738 5.321 8s.262-1.369.786-1.893S7.262 5.321 8 5.321s1.369.262 1.893.786.786 1.155.786 1.893-.262 1.369-.786 1.893-1.155.786-1.893.786z"/>
</svg>
