<svg xmlns="http://www.w3.org/2000/svg" width="17" height="16" viewBox="0 0 17 16">
    <path fill="#fff" fill-rule="evenodd" d="M5.031 14.6c1.917 0 3.615-.49 5.094-1.469 1.354-.875 2.406-2.052 3.156-3.531.73-1.396 1.094-2.844 1.094-4.344 0-.187-.01-.323-.031-.406.646-.48 1.198-1.052 1.656-1.719-.625.271-1.25.448-1.875.532.708-.438 1.188-1.042 1.438-1.813-.646.375-1.344.635-2.094.781-.313-.312-.672-.562-1.078-.75-.407-.187-.85-.281-1.329-.281-.583 0-1.124.146-1.624.438-.5.291-.896.692-1.188 1.203-.292.51-.438 1.057-.438 1.64 0 .25.021.5.063.75-1.333-.062-2.589-.396-3.766-1S1.938 3.215 1.125 2.194c-.313.52-.469 1.067-.469 1.64s.136 1.1.406 1.578c.271.48.625.875 1.063 1.188-.52-.02-1.01-.167-1.469-.438v.063c0 .77.25 1.458.75 2.063.5.604 1.125.99 1.875 1.156-.291.062-.583.093-.875.093-.187 0-.385-.01-.594-.03.209.645.589 1.182 1.141 1.609.552.427 1.193.64 1.922.64-1.208.938-2.573 1.406-4.094 1.406-.291 0-.552-.01-.781-.03 1.52.978 3.198 1.468 5.031 1.468z"/>
</svg>
