<svg xmlns="http://www.w3.org/2000/svg" width="16" height="16" viewBox="0 0 16 16">
    <path fill="#fff" fill-rule="evenodd" d="M8 13.653l2.667-.03c1.875-.058 3.067-.156 3.575-.293.351-.097.654-.273.908-.527s.43-.547.528-.88c.136-.527.234-1.337.293-2.431L16 8.026l-.03-1.465c-.058-1.074-.156-1.875-.292-2.403-.098-.351-.274-.654-.528-.908s-.557-.43-.908-.528c-.508-.136-1.7-.234-3.575-.293L8 2.4l-2.667.03c-1.875.058-3.067.156-3.575.292-.351.098-.654.274-.908.528s-.43.557-.528.908C.186 4.686.088 5.487.03 6.561.01 7.108 0 7.597 0 8.026l.03 1.466c.058 1.094.156 1.904.292 2.432.098.332.274.625.528.879s.557.43.908.527c.508.137 1.7.235 3.575.293l2.667.03zm-1.641-3.224V5.653l4.19 2.373-4.19 2.403z"/>
</svg>
